<svg id="Layer_1" data-name="Layer 1" xmlns="http://www.w3.org/2000/svg" xmlns:xlink="http://www.w3.org/1999/xlink" viewBox="0 0 256 256"><defs><style>.cls-1{fill:url(#linear-gradient);}.cls-2{fill:url(#linear-gradient-2);}.cls-3{fill:url(#linear-gradient-3);}</style><linearGradient id="linear-gradient" x1="19.63" y1="27.8" x2="144.59" y2="99.95" gradientUnits="userSpaceOnUse"><stop offset="0" stop-color="#a33ed1"/><stop offset="0.44" stop-color="#8939d1"/><stop offset="1" stop-color="#7d37d1"/></linearGradient><linearGradient id="linear-gradient-2" x1="157.93" y1="87.62" x2="239.21" y2="134.54" xlink:href="#linear-gradient"/><linearGradient id="linear-gradient-3" x1="35.44" y1="144.57" x2="162.6" y2="217.99" xlink:href="#linear-gradient"/></defs><path class="cls-1" d="M116.08,96.8c9.54-5.57,41.31-24,41.31-24s4.82-2.63,6.73-6.73c1.36-2.91,1-8.64,1-8.64a9.67,9.67,0,0,0-1.92-4.81,25.26,25.26,0,0,0-5.77-4.8L87.25,7.44A18.91,18.91,0,0,0,78.6,5.52C74.45,5.75,70,8.4,70,8.4L16.15,38.19S12,40.2,10.38,44c-1,2.3-1,7.69-1,7.69v25s0,3.83,1.92,5.77,5.77,1.92,5.77,1.92a6.17,6.17,0,0,0,3.84-1,11.29,11.29,0,0,0,2.88-3.84V69.9s-.7-12.69,12.5-10.57L100.7,96.8S106.53,102.37,116.08,96.8Z"/><path class="cls-2" d="M244.47,48.86c-1.5-2-6.17-4.7-6.17-4.7L216.7,31.62s-3.3-1.94-5.95-1.23-4.56,4-4.56,4a6.21,6.21,0,0,0-1.1,3.81A11.41,11.41,0,0,0,207,42.64l8.31,4.82s11.32,5.76,2.87,16.11l-64.74,36.86s-7.74,2.24-7.71,13.3,0,47.79,0,47.79-.14,5.49,2.44,9.19c1.84,2.64,7,5.17,7,5.17a9.77,9.77,0,0,0,5.12.76,25.4,25.4,0,0,0,7.05-2.58l70.12-40.39a19,19,0,0,0,6-6.52c1.89-3.7,1.85-8.92,1.85-8.92l1.26-61.49S246.92,52.11,244.47,48.86Z"/><path class="cls-3" d="M151.33,221.46a11.28,11.28,0,0,0-4.77-.56l-8.3,4.84s-10.61,7-15.43-5.47l0-74.49s1.88-7.84-7.74-13.28-41.56-23.59-41.56-23.59-4.7-2.84-9.2-2.42c-3.2.29-8,3.52-8,3.52a9.74,9.74,0,0,0-3.18,4.08,25.2,25.2,0,0,0-1.24,7.4l.46,80.92a18.88,18.88,0,0,0,2.7,8.44c2.28,3.47,6.84,6,6.84,6l52.83,31.48s3.84,2.6,7.89,2.08c2.47-.32,7.12-3,7.12-3l21.59-12.58s3.31-1.91,4-4.57-1.24-6-1.24-6A6.17,6.17,0,0,0,151.33,221.46Z"/></svg>