<svg width="20" height="20" viewBox="0 0 20 20" fill="none" xmlns="http://www.w3.org/2000/svg">
<mask id="path-1-inside-1" fill="white">
<path d="M9.96133 0.434814C4.46055 0.434814 0 4.81995 0 10.2295C0 14.5571 2.85422 18.2285 6.81219 19.5236C7.31 19.6143 7.49281 19.3112 7.49281 19.0524C7.49281 18.8189 7.48352 18.0473 7.4793 17.2289C4.70797 17.8214 4.1232 16.0732 4.1232 16.0732C3.67008 14.9411 3.01719 14.6401 3.01719 14.6401C2.11344 14.0322 3.08531 14.0446 3.08531 14.0446C4.08563 14.1137 4.61234 15.054 4.61234 15.054C5.50078 16.5514 6.94266 16.1185 7.51109 15.8683C7.60047 15.2351 7.85867 14.8031 8.14352 14.5585C5.93102 14.3108 3.60508 13.4709 3.60508 9.71793C3.60508 8.64862 3.99422 7.77482 4.63148 7.08892C4.52805 6.84218 4.18711 5.84601 4.72797 4.49686C4.72797 4.49686 5.56445 4.2336 7.46805 5.50086C8.26258 5.28378 9.11477 5.175 9.96133 5.17132C10.8079 5.175 11.6607 5.28378 12.4568 5.50086C14.3581 4.2336 15.1934 4.49686 15.1934 4.49686C15.7356 5.84601 15.3945 6.84218 15.2911 7.08892C15.9298 7.77482 16.3162 8.64855 16.3162 9.71793C16.3162 13.4798 13.9859 14.3082 11.7678 14.5507C12.1251 14.8546 12.4434 15.4508 12.4434 16.3645C12.4434 17.675 12.4319 18.7298 12.4319 19.0524C12.4319 19.3131 12.6112 19.6185 13.1162 19.5223C17.072 18.2257 19.9226 14.5556 19.9226 10.2295C19.9226 4.81995 15.4627 0.434814 9.96133 0.434814Z"/>
</mask>
<path d="M9.96133 0.434814C4.46055 0.434814 0 4.81995 0 10.2295C0 14.5571 2.85422 18.2285 6.81219 19.5236C7.31 19.6143 7.49281 19.3112 7.49281 19.0524C7.49281 18.8189 7.48352 18.0473 7.4793 17.2289C4.70797 17.8214 4.1232 16.0732 4.1232 16.0732C3.67008 14.9411 3.01719 14.6401 3.01719 14.6401C2.11344 14.0322 3.08531 14.0446 3.08531 14.0446C4.08563 14.1137 4.61234 15.054 4.61234 15.054C5.50078 16.5514 6.94266 16.1185 7.51109 15.8683C7.60047 15.2351 7.85867 14.8031 8.14352 14.5585C5.93102 14.3108 3.60508 13.4709 3.60508 9.71793C3.60508 8.64862 3.99422 7.77482 4.63148 7.08892C4.52805 6.84218 4.18711 5.84601 4.72797 4.49686C4.72797 4.49686 5.56445 4.2336 7.46805 5.50086C8.26258 5.28378 9.11477 5.175 9.96133 5.17132C10.8079 5.175 11.6607 5.28378 12.4568 5.50086C14.3581 4.2336 15.1934 4.49686 15.1934 4.49686C15.7356 5.84601 15.3945 6.84218 15.2911 7.08892C15.9298 7.77482 16.3162 8.64855 16.3162 9.71793C16.3162 13.4798 13.9859 14.3082 11.7678 14.5507C12.1251 14.8546 12.4434 15.4508 12.4434 16.3645C12.4434 17.675 12.4319 18.7298 12.4319 19.0524C12.4319 19.3131 12.6112 19.6185 13.1162 19.5223C17.072 18.2257 19.9226 14.5556 19.9226 10.2295C19.9226 4.81995 15.4627 0.434814 9.96133 0.434814Z" fill="#7994B0"/>
<path d="M6.81219 19.5236L3.7751 28.805L4.40781 29.012L5.06277 29.1313L6.81219 19.5236ZM7.4793 17.2289L17.2448 17.1785L17.1829 5.16797L5.4376 7.67904L7.4793 17.2289ZM4.1232 16.0732L13.3844 12.9753L13.2947 12.7071L13.1896 12.4445L4.1232 16.0732ZM3.01719 14.6401L-2.4335 22.743L-1.78305 23.1806L-1.07112 23.5088L3.01719 14.6401ZM3.08531 14.0446L3.75865 4.30222L3.48481 4.2833L3.21035 4.27978L3.08531 14.0446ZM4.61234 15.054L-3.90753 19.8267L-3.84821 19.9326L-3.78627 20.037L4.61234 15.054ZM7.51109 15.8683L11.4452 24.8064L16.421 22.6163L17.1808 17.2333L7.51109 15.8683ZM8.14352 14.5585L14.5054 21.9675L31.5285 7.35031L9.2302 4.85354L8.14352 14.5585ZM4.63148 7.08892L11.7858 13.7359L16.0728 9.12181L13.6377 3.31333L4.63148 7.08892ZM4.72797 4.49686L1.79633 -4.81834L-2.61541 -3.4299L-4.3364 0.863049L4.72797 4.49686ZM7.46805 5.50086L2.05638 13.6299L5.75536 16.0924L10.0419 14.9212L7.46805 5.50086ZM9.96133 5.17132L10.0039 -4.59421L9.96133 -4.5944L9.91879 -4.59421L9.96133 5.17132ZM12.4568 5.50086L9.88762 14.9225L14.1751 16.0916L17.8729 13.6269L12.4568 5.50086ZM15.1934 4.49686L24.2547 0.855365L22.5329 -3.42919L18.1288 -4.81716L15.1934 4.49686ZM15.2911 7.08892L6.28485 3.31333L3.84689 9.12882L8.14406 13.7438L15.2911 7.08892ZM11.7678 14.5507L10.7068 4.84287L-11.8187 7.30486L5.43959 21.9885L11.7678 14.5507ZM13.1162 19.5223L14.9432 29.1155L15.5606 28.9979L16.1579 28.8022L13.1162 19.5223ZM19.9226 10.2295H29.6882H19.9226ZM9.96133 -9.33081C-0.776341 -9.33081 -9.76562 -0.728652 -9.76562 10.2295H9.76562C9.76562 10.2261 9.76578 10.2327 9.76313 10.2454C9.76061 10.2575 9.757 10.2683 9.75361 10.2762C9.74726 10.2909 9.74685 10.2845 9.76452 10.2671C9.78226 10.2497 9.80652 10.233 9.8343 10.2214C9.85602 10.2124 9.89313 10.2004 9.96133 10.2004V-9.33081ZM-9.76562 10.2295C-9.76562 18.9932 -3.9905 26.2639 3.7751 28.805L9.84928 10.2423C9.82684 10.2349 9.80612 10.2243 9.78754 10.2109C9.76807 10.1969 9.7562 10.1836 9.75107 10.1767C9.7467 10.1708 9.75165 10.1758 9.75768 10.1936C9.76062 10.2023 9.76292 10.2115 9.76435 10.2201C9.76581 10.2289 9.76562 10.2327 9.76562 10.2295H-9.76562ZM5.06277 29.1313C7.48479 29.5723 10.9633 29.2864 13.8591 26.6894C16.4892 24.3308 17.2584 21.2774 17.2584 19.0524H-2.27281C-2.27281 17.0862 -1.59497 14.3137 0.81922 12.1487C3.49924 9.7453 6.6374 9.56561 8.56161 9.91598L5.06277 29.1313ZM17.2584 19.0524C17.2584 18.8795 17.2554 18.5622 17.2529 18.2741C17.25 17.9508 17.2468 17.5686 17.2448 17.1785L-2.2862 17.2792C-2.28399 17.7075 -2.28047 18.1203 -2.27761 18.4458C-2.27615 18.6117 -2.27492 18.7491 -2.27402 18.8617C-2.27358 18.9173 -2.27326 18.9622 -2.27305 18.9975C-2.27295 19.015 -2.27289 19.0285 -2.27285 19.0386C-2.27281 19.0491 -2.27281 19.0532 -2.27281 19.0524H17.2584ZM5.4376 7.67904C5.77409 7.6071 6.51868 7.50636 7.52731 7.68916C8.57264 7.87862 9.62139 8.32345 10.555 9.01134C11.4531 9.67313 12.0785 10.435 12.5034 11.1047C12.7166 11.4406 12.8889 11.7679 13.0296 12.0745C13.1004 12.2288 13.1646 12.381 13.2232 12.5304C13.2525 12.6052 13.2805 12.6796 13.3073 12.7537C13.3207 12.7907 13.3338 12.8277 13.3467 12.8646C13.3531 12.8831 13.3595 12.9015 13.3657 12.92C13.3689 12.9292 13.372 12.9384 13.3751 12.9476C13.3767 12.9522 13.379 12.9591 13.3798 12.9614C13.3821 12.9684 13.3844 12.9753 4.1232 16.0732C-5.13802 19.1712 -5.13569 19.1781 -5.13337 19.185C-5.13259 19.1873 -5.13024 19.1943 -5.12867 19.199C-5.12552 19.2083 -5.12234 19.2177 -5.11912 19.2271C-5.11268 19.2459 -5.10611 19.265 -5.09939 19.2843C-5.08596 19.3229 -5.07196 19.3624 -5.05736 19.4027C-5.02817 19.4833 -4.99653 19.5675 -4.96226 19.655C-4.89383 19.8297 -4.81432 20.0189 -4.7221 20.2199C-4.53862 20.6197 -4.29899 21.0789 -3.9877 21.5695C-3.36648 22.5484 -2.4217 23.7103 -1.03095 24.7351C2.07577 27.0243 5.87875 27.5574 9.521 26.7787L5.4376 7.67904ZM13.1896 12.4445C12.4567 10.6132 11.4216 9.12668 10.2564 7.97787C9.68654 7.41608 9.11386 6.9628 8.57447 6.6002C8.30543 6.41935 8.04568 6.26171 7.79958 6.12459C7.67654 6.05602 7.55685 5.99255 7.44104 5.93383C7.38313 5.90447 7.32618 5.87629 7.27024 5.84924C7.24227 5.83571 7.21455 5.82247 7.18709 5.80951C7.17336 5.80302 7.1597 5.79661 7.1461 5.79027C7.1393 5.78709 7.13252 5.78394 7.12575 5.7808C7.12237 5.77923 7.1173 5.77689 7.11561 5.77611C7.11055 5.77377 7.1055 5.77144 3.01719 14.6401C-1.07112 23.5088 -1.07617 23.5064 -1.08122 23.5041C-1.0829 23.5033 -1.08795 23.501 -1.09132 23.4994C-1.09804 23.4963 -1.10477 23.4932 -1.11149 23.49C-1.12493 23.4838 -1.13835 23.4775 -1.15177 23.4711C-1.1786 23.4585 -1.20537 23.4457 -1.23209 23.4328C-1.28553 23.4069 -1.33876 23.3806 -1.39178 23.3537C-1.4978 23.2999 -1.60302 23.244 -1.70733 23.1859C-1.91595 23.0697 -2.12115 22.9444 -2.3219 22.8094C-2.72472 22.5386 -3.10586 22.2314 -3.45582 21.8863C-4.18135 21.171 -4.66339 20.401 -4.94321 19.7019L13.1896 12.4445ZM8.46787 6.53717C8.64548 6.65664 9.05792 6.94553 9.54319 7.41398C9.95519 7.81171 10.9296 8.81934 11.6288 10.4583C12.4364 12.3511 12.877 15.1882 11.5714 18.1374C10.4111 20.7587 8.46681 22.0839 7.48789 22.6327C6.45572 23.2113 5.55716 23.459 5.12698 23.5633C4.63622 23.6823 4.23716 23.7352 3.99831 23.7611C3.74297 23.7887 3.53045 23.8 3.37856 23.8052C3.2983 23.8079 3.22377 23.8093 3.15571 23.8099C3.12141 23.8102 3.08803 23.8103 3.05563 23.8102C3.0394 23.8101 3.02335 23.81 3.00748 23.8099C2.99954 23.8099 2.99164 23.8098 2.98377 23.8097C2.97984 23.8097 2.97592 23.8096 2.972 23.8096C2.97005 23.8096 2.96711 23.8095 2.96613 23.8095C2.96321 23.8095 2.96028 23.8094 3.08531 14.0446C3.21035 4.27978 3.20741 4.27975 3.20447 4.27971C3.20348 4.2797 3.20052 4.27966 3.19854 4.27964C3.19456 4.27959 3.19055 4.27955 3.1865 4.27951C3.1784 4.27942 3.17015 4.27935 3.16174 4.27928C3.14494 4.27915 3.12751 4.27905 3.10947 4.279C3.07345 4.2789 3.03473 4.27899 2.99353 4.27933C2.91168 4.28001 2.81714 4.28173 2.71208 4.28532C2.51057 4.2922 2.22918 4.30726 1.89685 4.34323C1.61924 4.37327 -0.166585 4.53278 -2.0632 5.59607C-3.10712 6.18131 -5.10227 7.55242 -6.28825 10.2316C-7.61942 13.2388 -7.17925 16.1457 -6.33571 18.1228C-5.60047 19.8461 -4.55374 20.9525 -4.02191 21.4659C-3.41681 22.0501 -2.83704 22.4716 -2.4335 22.743L8.46787 6.53717ZM2.41197 23.787C-0.126622 23.6115 -1.77782 22.3429 -2.49953 21.6578C-2.89049 21.2866 -3.17641 20.934 -3.37851 20.6566C-3.48396 20.5118 -3.57867 20.3709 -3.6642 20.2358C-3.70728 20.1677 -3.7489 20.0997 -3.78919 20.0319C-3.80936 19.998 -3.82929 19.9639 -3.84898 19.9298C-3.85883 19.9127 -3.86863 19.8956 -3.87839 19.8784C-3.88327 19.8698 -3.88813 19.8612 -3.89299 19.8526C-3.89542 19.8483 -3.89784 19.844 -3.90027 19.8397C-3.90148 19.8375 -3.9033 19.8343 -3.9039 19.8332C-3.90571 19.83 -3.90753 19.8267 4.61234 15.054C13.1322 10.2812 13.1304 10.278 13.1286 10.2747C13.128 10.2737 13.1261 10.2704 13.1249 10.2682C13.1225 10.2638 13.12 10.2594 13.1175 10.255C13.1125 10.2462 13.1074 10.2373 13.1023 10.2282C13.092 10.2102 13.0815 10.1917 13.0706 10.1728C13.0488 10.1351 13.0258 10.0958 13.0016 10.0549C12.9531 9.9733 12.8992 9.88506 12.8397 9.79114C12.7215 9.60429 12.5778 9.38938 12.4073 9.15541C12.0752 8.69957 11.5951 8.10753 10.9474 7.49269C9.71227 6.32016 7.29756 4.54681 3.75865 4.30222L2.41197 23.787ZM-3.78627 20.037C-1.67594 23.5939 1.77542 25.5326 5.3271 25.8446C8.22977 26.0996 10.5012 25.2219 11.4452 24.8064L3.57701 6.93012C3.95255 6.76482 5.21883 6.22865 7.03634 6.38832C8.06507 6.47869 9.29132 6.79831 10.4904 7.53861C11.7003 8.28563 12.5145 9.23421 13.011 10.071L-3.78627 20.037ZM17.1808 17.2333C16.9952 18.5484 16.3063 20.4211 14.5054 21.9675L1.7816 7.14951C-0.589004 9.18508 -1.79427 11.9219 -2.15866 14.5032L17.1808 17.2333ZM9.2302 4.85354C8.67208 4.79105 9.88905 4.78584 11.2706 5.92909C12.0595 6.58198 12.6649 7.4147 13.0264 8.28808C13.3627 9.1006 13.3707 9.6612 13.3707 9.71793H-6.16055C-6.16055 13.7894 -4.7794 17.9988 -1.18136 20.9763C1.91626 23.5397 5.40245 24.0782 7.05683 24.2635L9.2302 4.85354ZM13.3707 9.71793C13.3707 10.3945 13.2422 11.1548 12.9335 11.9186C12.6282 12.6741 12.2086 13.2809 11.7858 13.7359L-2.52286 0.441908C-4.74481 2.83345 -6.16055 6.04839 -6.16055 9.71793H13.3707ZM13.6377 3.31333C14.175 4.59504 14.498 6.37039 13.7923 8.13067L-4.3364 0.863049C-6.1238 5.32163 -5.11895 9.08932 -4.37476 10.8645L13.6377 3.31333ZM4.72797 4.49686C7.65961 13.8121 7.65037 13.815 7.64114 13.8179C7.63806 13.8188 7.62882 13.8217 7.62266 13.8236C7.61034 13.8274 7.59802 13.8312 7.58569 13.835C7.56104 13.8425 7.53638 13.85 7.51171 13.8573C7.46236 13.872 7.41297 13.8862 7.36355 13.9001C7.26471 13.9278 7.16582 13.9537 7.06692 13.978C6.86901 14.0266 6.67177 14.0683 6.47555 14.1031C6.08208 14.173 5.69865 14.2145 5.32848 14.2312C4.58214 14.2649 3.93275 14.1959 3.40361 14.0863C2.35949 13.8701 1.89276 13.521 2.05638 13.6299L12.8797 -2.62817C11.1397 -3.78651 9.30298 -4.6376 7.36472 -5.03904C6.3885 -5.24123 5.41102 -5.3236 4.44835 -5.28018C3.97001 -5.2586 3.50636 -5.20643 3.05971 -5.12709C2.8369 -5.08752 2.61982 -5.04145 2.40873 -4.9896C2.30324 -4.9637 2.19943 -4.93639 2.0973 -4.9078C2.04624 -4.8935 1.99563 -4.87889 1.94546 -4.86397C1.92038 -4.85651 1.89541 -4.84898 1.87055 -4.84138C1.85812 -4.83757 1.84572 -4.83375 1.83335 -4.82991C1.82717 -4.82799 1.81791 -4.8251 1.81482 -4.82414C1.80557 -4.82124 1.79633 -4.81834 4.72797 4.49686ZM10.0419 14.9212C10.0128 14.9291 9.99233 14.9336 9.98055 14.936C9.96871 14.9383 9.96323 14.939 9.96382 14.9389C9.96438 14.9389 9.96887 14.9383 9.97675 14.9378C9.98462 14.9373 9.99388 14.9369 10.0039 14.9368L9.91879 -4.59421C8.28741 -4.58711 6.57902 -4.37981 4.89417 -3.91946L10.0419 14.9212ZM9.91879 14.9368C9.92878 14.9369 9.93816 14.9373 9.94628 14.9378C9.95441 14.9383 9.9593 14.9389 9.96039 14.9391C9.96152 14.9392 9.95675 14.9386 9.94579 14.9365C9.93488 14.9343 9.91544 14.9301 9.88762 14.9225L15.026 -3.92075C13.3427 -4.37975 11.6355 -4.58711 10.0039 -4.59421L9.91879 14.9368ZM17.8729 13.6269C18.0356 13.5185 17.5674 13.8688 16.5211 14.0858C15.9909 14.1958 15.3402 14.265 14.5926 14.2312C14.2217 14.2145 13.8377 14.1728 13.4436 14.1027C13.2471 14.0678 13.0496 14.026 12.8514 13.9773C12.7524 13.9529 12.6534 13.9269 12.5544 13.8991C12.505 13.8853 12.4555 13.871 12.4061 13.8563C12.3814 13.8489 12.3567 13.8414 12.3321 13.8339C12.3197 13.8301 12.3074 13.8263 12.295 13.8225C12.2889 13.8205 12.2796 13.8176 12.2765 13.8167C12.2673 13.8138 12.2581 13.8109 15.1934 4.49686C18.1288 -4.81716 18.1196 -4.82007 18.1103 -4.82298C18.1072 -4.82394 18.0979 -4.82684 18.0918 -4.82876C18.0794 -4.83261 18.067 -4.83644 18.0545 -4.84025C18.0296 -4.84788 18.0046 -4.85543 17.9795 -4.86291C17.9293 -4.87786 17.8786 -4.89251 17.8275 -4.90684C17.7253 -4.93551 17.6213 -4.96288 17.5157 -4.98885C17.3044 -5.04083 17.0871 -5.08701 16.864 -5.12669C16.4169 -5.20623 15.9527 -5.25852 15.4739 -5.28015C14.5102 -5.32368 13.5319 -5.24109 12.5551 -5.03853C10.6159 -4.63638 8.77932 -3.78404 7.04066 -2.6252L17.8729 13.6269ZM6.13215 8.13835C5.42338 6.37469 5.74734 4.5955 6.28485 3.31333L24.2973 10.8645C25.0417 9.08886 26.0479 5.31733 24.2547 0.855365L6.13215 8.13835ZM8.14406 13.7438C7.71427 13.2822 7.29148 12.6693 6.98546 11.91C6.67651 11.1434 6.55063 10.3856 6.55063 9.71793H26.0819C26.0819 6.0651 24.6805 2.84226 22.4381 0.434047L8.14406 13.7438ZM6.55063 9.71793C6.55063 9.66465 6.55802 9.10211 6.89658 8.28559C7.26094 7.40684 7.87178 6.56916 8.66816 5.91374C10.0591 4.769 11.2828 4.77991 10.7068 4.84287L12.8289 24.2585C14.471 24.079 17.9689 23.5545 21.0795 20.9945C24.7 18.0148 26.0819 13.7915 26.0819 9.71793H6.55063ZM5.43959 21.9885C3.18101 20.0669 2.67781 17.6888 2.67781 16.3645H22.2091C22.2091 13.2127 21.0691 9.64245 18.096 7.11287L5.43959 21.9885ZM2.67781 16.3645C2.67781 16.9918 2.67504 17.5612 2.67222 18.0186C2.66964 18.4354 2.66625 18.8512 2.66625 19.0524H22.1975C22.1975 18.931 22.1999 18.6581 22.2031 18.1393C22.2061 17.661 22.2091 17.0477 22.2091 16.3645H2.67781ZM2.66625 19.0524C2.66625 21.2005 3.38772 24.2882 6.06068 26.6879C9.01402 29.3394 12.5512 29.5711 14.9432 29.1155L11.2892 9.92912C13.1762 9.56975 16.3712 9.69682 19.1086 12.1545C21.5657 14.3604 22.1975 17.165 22.1975 19.0524H2.66625ZM16.1579 28.8022C23.9209 26.2577 29.6882 18.9881 29.6882 10.2295H10.157C10.157 10.233 10.1567 10.2295 10.1582 10.2209C10.1596 10.2125 10.1618 10.2034 10.1647 10.1948C10.1707 10.1772 10.1756 10.1722 10.1714 10.1778C10.1665 10.1845 10.1548 10.1976 10.1357 10.2114C10.1174 10.2246 10.0969 10.2351 10.0745 10.2425L16.1579 28.8022ZM29.6882 10.2295C29.6882 -0.728208 20.7 -9.33081 9.96133 -9.33081V10.2004C10.0298 10.2004 10.067 10.2124 10.0886 10.2214C10.1163 10.233 10.1405 10.2496 10.1581 10.2669C10.1757 10.2842 10.1753 10.2906 10.1689 10.2759C10.1655 10.268 10.1619 10.2573 10.1594 10.2452C10.1568 10.2325 10.157 10.226 10.157 10.2295H29.6882Z" fill="#43596F" mask="url(#path-1-inside-1)"/>
<path d="M3.73067 14.3873C3.70879 14.4359 3.63082 14.4505 3.55997 14.4172C3.4877 14.3852 3.44707 14.3188 3.47051 14.27C3.492 14.2199 3.56996 14.2059 3.64207 14.2396C3.7145 14.2714 3.75575 14.3384 3.73067 14.3873ZM4.22067 14.8172C4.17317 14.8605 4.08028 14.8404 4.01723 14.7719C3.95207 14.7036 3.93989 14.6124 3.98809 14.5683C4.03707 14.5251 4.12715 14.5453 4.19247 14.6137C4.25762 14.6827 4.27028 14.7734 4.22059 14.8172L4.22067 14.8172ZM4.55684 15.3672C4.49575 15.4089 4.3959 15.3698 4.33426 15.2827C4.27325 15.1956 4.27325 15.0912 4.33559 15.0493C4.39747 15.0074 4.49575 15.0451 4.55825 15.1315C4.61918 15.2201 4.61918 15.3245 4.55676 15.3672L4.55684 15.3672ZM5.12528 16.0042C5.07067 16.0634 4.95442 16.0475 4.86926 15.9667C4.78223 15.8878 4.75793 15.7757 4.8127 15.7165C4.86793 15.6572 4.98489 15.6738 5.07067 15.7539C5.15715 15.8328 5.18356 15.9457 5.12536 16.0042H5.12528ZM5.85997 16.2193C5.83598 16.296 5.72395 16.3308 5.61114 16.2983C5.49848 16.2647 5.42473 16.1748 5.44747 16.0973C5.4709 16.0201 5.5834 15.9838 5.69707 16.0187C5.80957 16.0521 5.88348 16.1413 5.86004 16.2193H5.85997ZM6.69621 16.3105C6.69903 16.3913 6.60332 16.4583 6.48489 16.4597C6.36575 16.4623 6.26942 16.3969 6.26817 16.3175C6.26817 16.2359 6.36168 16.1695 6.48075 16.1676C6.59918 16.1653 6.69621 16.2302 6.69621 16.3105ZM7.51762 16.2795C7.53184 16.3583 7.4495 16.4393 7.33192 16.4608C7.21629 16.4816 7.10926 16.4329 7.0945 16.3548C7.08012 16.274 7.16403 16.1931 7.27942 16.1721C7.39723 16.152 7.50262 16.1994 7.51762 16.2795Z" fill="#7994B0"/>
</svg>
