<svg width="14" height="14" viewBox="0 0 14 14" fill="none" xmlns="http://www.w3.org/2000/svg">
<path d="M4.08333 3.49996V1.74996C4.08333 1.59525 4.14479 1.44688 4.25419 1.33748C4.36358 1.22808 4.51196 1.16663 4.66667 1.16663H11.6667C11.8214 1.16663 11.9697 1.22808 12.0791 1.33748C12.1885 1.44688 12.25 1.59525 12.25 1.74996V9.91663C12.25 10.0713 12.1885 10.2197 12.0791 10.3291C11.9697 10.4385 11.8214 10.5 11.6667 10.5H9.91667V12.25C9.91667 12.572 9.65417 12.8333 9.32925 12.8333H2.33742C2.26049 12.8338 2.18423 12.819 2.11302 12.7899C2.04181 12.7608 1.97705 12.7179 1.92247 12.6637C1.86788 12.6095 1.82455 12.5451 1.79495 12.474C1.76535 12.403 1.75008 12.3269 1.75 12.25L1.75175 4.08329C1.75175 3.76129 2.01425 3.49996 2.33917 3.49996H4.08333ZM2.91842 4.66663L2.91667 11.6666H8.75V4.66663H2.91842ZM5.25 3.49996H9.91667V9.33329H11.0833V2.33329H5.25V3.49996Z" fill="#7994B0"/>
</svg>
