<svg width="20" height="20" viewBox="0 0 20 20" fill="none" xmlns="http://www.w3.org/2000/svg">
<mask id="path-1-inside-1" fill="white">
<path d="M19.9997 4.26351H19.2088C18.9152 4.26351 18.5 4.6745 18.5 4.93755V14.4734C18.5 14.7368 18.9152 15.0959 19.2088 15.0959H19.9997V17.3594H12.8345V15.0959H14.3342V5.07185H14.2607L10.7586 17.3594H8.04735L4.59043 5.07185H4.50295V15.0959H6.00263V17.3594H0.00390625V15.0959H0.772102C1.08836 15.0959 1.50359 14.7368 1.50359 14.4734V4.93748C1.50359 4.67442 1.08836 4.26343 0.772102 4.26343H0.00390625V2H7.50497L9.96772 10.8922H10.0357L12.521 2H19.9997V4.26351Z"/>
</mask>
<path d="M19.9997 4.26351H19.2088C18.9152 4.26351 18.5 4.6745 18.5 4.93755V14.4734C18.5 14.7368 18.9152 15.0959 19.2088 15.0959H19.9997V17.3594H12.8345V15.0959H14.3342V5.07185H14.2607L10.7586 17.3594H8.04735L4.59043 5.07185H4.50295V15.0959H6.00263V17.3594H0.00390625V15.0959H0.772102C1.08836 15.0959 1.50359 14.7368 1.50359 14.4734V4.93748C1.50359 4.67442 1.08836 4.26343 0.772102 4.26343H0.00390625V2H7.50497L9.96772 10.8922H10.0357L12.521 2H19.9997V4.26351Z" fill="#7994B0"/>
<path d="M19.9997 4.26351V14.0271H29.7632V4.26351H19.9997ZM19.9997 15.0959H29.7632V5.33232H19.9997V15.0959ZM19.9997 17.3594V27.1229H29.7632V17.3594H19.9997ZM12.8345 17.3594H3.07099V27.1229H12.8345V17.3594ZM12.8345 15.0959V5.33232H3.07099V15.0959H12.8345ZM14.3342 15.0959V24.8594H24.0978V15.0959H14.3342ZM14.3342 5.07185H24.0978V-4.6917H14.3342V5.07185ZM14.2607 5.07185V-4.6917H6.89107L4.87109 2.39571L14.2607 5.07185ZM10.7586 17.3594V27.1229H18.1283L20.1483 20.0355L10.7586 17.3594ZM8.04735 17.3594L-1.35133 20.0036L0.651603 27.1229H8.04735V17.3594ZM4.59043 5.07185L13.9891 2.42766L11.9862 -4.6917H4.59043V5.07185ZM4.50295 5.07185V-4.6917H-5.2606V5.07185H4.50295ZM4.50295 15.0959H-5.2606V24.8594H4.50295V15.0959ZM6.00263 15.0959H15.7662V5.33232H6.00263V15.0959ZM6.00263 17.3594V27.1229H15.7662V17.3594H6.00263ZM0.00390625 17.3594H-9.75964V27.1229H0.00390625V17.3594ZM0.00390625 15.0959V5.33232H-9.75964V15.0959H0.00390625ZM0.00390625 4.26343H-9.75964V14.027H0.00390625V4.26343ZM0.00390625 2V-7.76355H-9.75964V2H0.00390625ZM7.50497 2L16.9143 -0.605975L14.932 -7.76355H7.50497V2ZM9.96772 10.8922L0.55838 13.4982L2.54071 20.6558H9.96772V10.8922ZM10.0357 10.8922V20.6558H17.4445L19.4389 13.5204L10.0357 10.8922ZM12.521 2V-7.76355H5.11214L3.11783 -0.628137L12.521 2ZM19.9997 2H29.7632V-7.76355H19.9997V2ZM19.9997 -5.50004H19.2088V14.0271H19.9997V-5.50004ZM19.2088 -5.50004C16.986 -5.50004 15.2988 -4.7717 14.3914 -4.28936C13.3908 -3.75748 12.5858 -3.12363 11.9634 -2.52285C11.344 -1.92491 10.679 -1.14111 10.1097 -0.153131C9.62129 0.694518 8.73642 2.49432 8.73642 4.93755H28.2635C28.2635 7.24926 27.4305 8.89904 27.0292 9.59564C26.5469 10.4326 26.0041 11.0643 25.5251 11.5266C25.0433 11.9918 24.3971 12.5064 23.557 12.953C22.81 13.3501 21.2848 14.0271 19.2088 14.0271V-5.50004ZM8.73642 4.93755V14.4734H28.2635V4.93755H8.73642ZM8.73642 14.4734C8.73642 16.9891 9.66948 18.8488 10.2547 19.7996C10.9027 20.8525 11.6533 21.6535 12.3225 22.2378C13.2998 23.0912 15.6944 24.8594 19.2088 24.8594V5.33232C21.016 5.33232 22.3836 5.84917 23.1341 6.20266C23.9549 6.5892 24.6265 7.05784 25.1661 7.52898C25.6948 7.99066 26.3232 8.65253 26.8842 9.56402C27.3824 10.3734 28.2635 12.0895 28.2635 14.4734H8.73642ZM19.2088 24.8594H19.9997V5.33232H19.2088V24.8594ZM10.2361 15.0959V17.3594H29.7632V15.0959H10.2361ZM19.9997 7.59583H12.8345V27.1229H19.9997V7.59583ZM22.5981 17.3594V15.0959H3.07099V17.3594H22.5981ZM12.8345 24.8594H14.3342V5.33232H12.8345V24.8594ZM24.0978 15.0959V5.07185H4.57067V15.0959H24.0978ZM14.3342 -4.6917H14.2607V14.8354H14.3342V-4.6917ZM4.87109 2.39571L1.36902 14.6832L20.1483 20.0355L23.6503 7.74798L4.87109 2.39571ZM10.7586 7.59583H8.04735V27.1229H10.7586V7.59583ZM17.446 14.7152L13.9891 2.42766L-4.80825 7.71603L-1.35133 20.0036L17.446 14.7152ZM4.59043 -4.6917H4.50295V14.8354H4.59043V-4.6917ZM-5.2606 5.07185V15.0959H14.2665V5.07185H-5.2606ZM4.50295 24.8594H6.00263V5.33232H4.50295V24.8594ZM-3.76092 15.0959V17.3594H15.7662V15.0959H-3.76092ZM6.00263 7.59583H0.00390625V27.1229H6.00263V7.59583ZM9.76745 17.3594V15.0959H-9.75964V17.3594H9.76745ZM0.00390625 24.8594H0.772102V5.33232H0.00390625V24.8594ZM0.772102 24.8594C4.15245 24.8594 6.51743 23.232 7.60531 22.3009C8.29778 21.7082 9.06768 20.8969 9.72993 19.8297C10.3308 18.8614 11.2671 16.9944 11.2671 14.4734H-8.25996C-8.25996 12.0842 -7.37549 10.3608 -6.8624 9.53393C-6.28788 8.60806 -5.64156 7.93597 -5.09242 7.46595C-4.29122 6.78017 -2.29199 5.33232 0.772102 5.33232V24.8594ZM11.2671 14.4734V4.93748H-8.25996V14.4734H11.2671ZM11.2671 4.93748C11.2671 2.48883 10.3791 0.682612 9.87634 -0.182884C9.29398 -1.18544 8.61039 -1.98132 7.96695 -2.59015C7.07538 -3.43377 4.58332 -5.50011 0.772102 -5.50011V14.027C-1.17262 14.027 -2.63302 13.4298 -3.42476 13.025C-4.28184 12.5868 -4.94915 12.0715 -5.45407 11.5938C-5.95417 11.1206 -6.51418 10.4768 -7.0088 9.62525C-7.42381 8.91079 -8.25996 7.2546 -8.25996 4.93748H11.2671ZM0.772102 -5.50011H0.00390625V14.027H0.772102V-5.50011ZM9.76745 4.26343V2H-9.75964V4.26343H9.76745ZM0.00390625 11.7635H7.50497V-7.76355H0.00390625V11.7635ZM-1.90438 4.60597L0.55838 13.4982L19.3771 8.28626L16.9143 -0.605975L-1.90438 4.60597ZM9.96772 20.6558H10.0357V1.12868H9.96772V20.6558ZM19.4389 13.5204L21.9242 4.62814L3.11783 -0.628137L0.632501 8.26409L19.4389 13.5204ZM12.521 11.7635H19.9997V-7.76355H12.521V11.7635ZM10.2361 2V4.26351H29.7632V2H10.2361Z" fill="#43596F" mask="url(#path-1-inside-1)"/>
</svg>
