<svg width="20" height="20" viewBox="0 0 20 20" fill="none" xmlns="http://www.w3.org/2000/svg">
<path d="M20 10C20 15.525 15.525 20 10 20C4.475 20 0 15.525 0 10C0 4.475 4.475 0 10 0C15.525 0 20 4.475 20 10Z" fill="#43596F"/>
<path d="M8.16797 14.5833C8.41797 14.5833 8.5263 14.4667 8.66797 14.3333C8.88464 14.125 11.668 11.4167 11.668 11.4167L9.95964 11L8.3763 12L8.16797 14.5V14.5833Z" fill="#121525"/>
<path d="M8.33035 12.0331L12.3637 15.0081C12.822 15.2581 13.1554 15.1331 13.272 14.5831L14.9137 6.84971C15.0804 6.17471 14.6554 5.87471 14.2137 6.07471L4.58035 9.79138C3.92202 10.0581 3.93035 10.4247 4.46369 10.5831L6.93869 11.3581L12.6637 7.74971C12.9304 7.58305 13.1804 7.67471 12.9804 7.85805L8.33035 12.0331Z" fill="#121525"/>
</svg>
