<svg width="20" height="20" viewBox="0 0 20 20" fill="none" xmlns="http://www.w3.org/2000/svg">
<path fill-rule="evenodd" clip-rule="evenodd" d="M20 3.01916C19.263 3.36038 18.4723 3.59204 17.6428 3.69534C18.4902 3.16316 19.1407 2.31793 19.445 1.31305C18.6514 1.80766 17.7741 2.16454 16.8402 2.35863C16.0913 1.52279 15.0261 1 13.8445 1C11.5799 1 9.74191 2.92837 9.74191 5.30441C9.74191 5.6425 9.77771 5.9712 9.84932 6.28425C6.43891 6.10581 3.41638 4.39031 1.39341 1.78575C1.04132 2.42124 0.838431 3.16003 0.838431 3.94891C0.838431 5.44215 1.56348 6.76008 2.66448 7.53018C1.99314 7.50827 1.36058 7.31418 0.805609 6.99174C0.805609 7.01052 0.805609 7.02617 0.805609 7.04495C0.805609 9.12985 2.2199 10.8704 4.09667 11.2648C3.75354 11.3619 3.38953 11.4151 3.01656 11.4151C2.75101 11.4151 2.49441 11.3869 2.24377 11.3368C2.76593 13.0461 4.28166 14.292 6.07489 14.3264C4.66955 15.4816 2.90318 16.1703 0.978666 16.1703C0.647471 16.1703 0.322244 16.1484 0 16.1108C1.81411 17.3317 3.97136 18.0455 6.28972 18.0455C13.8356 18.0455 17.9621 11.4871 17.9621 5.79902C17.9621 5.6112 17.9591 5.4265 17.9502 5.2418C18.7528 4.63449 19.448 3.87691 19.997 3.0129L20 3.01916Z" fill="#43596F"/>
</svg>
